PathFileType	4	(X/Y/Z)	 s06c0303.trc
DataRate	CameraRate	NumFrames	NumMarkers	Units	OrigDataRate	OrigDataStartFrame	OrigNumFrames
200	200	4	48	mm	200	251	2000
Frame#	Time	racr			lacr			c7			jug			rlel			rdr			llel			ldr			s2			lic			ric			lasi			rasi			rpsi			lpsi			rgt			lgt			rth1			rth2			rth3			rth4			rlfc			rmfc			rsh1			rsh2			rsh3			rsh4			rlmal			rcal			rtoe			rmt5			lth1			lth2			lth4			lth3			llfc			lmfc			llmal			lcal			lmt5			lsh1			lsh2			lsh3			lsh4			ltoe			SBIKE			LBIKE			RBIKE			
		X1	Y1	Z1	X2	Y2	Z2	X3	Y3	Z3	X4	Y4	Z4	X5	Y5	Z5	X6	Y6	Z6	X7	Y7	Z7	X8	Y8	Z8	X9	Y9	Z9	X10	Y10	Z10	X11	Y11	Z11	X12	Y12	Z12	X13	Y13	Z13	X14	Y14	Z14	X15	Y15	Z15	X16	Y16	Z16	X17	Y17	Z17	X18	Y18	Z18	X19	Y19	Z19	X20	Y20	Z20	X21	Y21	Z21	X22	Y22	Z22	X23	Y23	Z23	X24	Y24	Z24	X25	Y25	Z25	X26	Y26	Z26	X27	Y27	Z27	X28	Y28	Z28	X29	Y29	Z29	X30	Y30	Z30	X31	Y31	Z31	X32	Y32	Z32	X33	Y33	Z33	X34	Y34	Z34	X35	Y35	Z35	X36	Y36	Z36	X37	Y37	Z37	X38	Y38	Z38	X39	Y39	Z39	X40	Y40	Z40	X41	Y41	Z41	X42	Y42	Z42	X43	Y43	Z43	X44	Y44	Z44	X45	Y45	Z45	X46	Y46	Z46	X47	Y47	Z47	X48	Y48	Z48	
251	1.2550	489.488472	1343.589224	-47.375908	514.369941	1339.001812	-359.040925	479.694231	1425.776538	-200.941736	502.294709	1272.342775	-197.911546	510.375830	1083.157870	42.788300	703.069649	931.456500	-37.061828	506.082597	1073.408233	-459.721354	701.703943	923.750915	-403.324877	-26.071760	1162.705423	-233.384719	159.347677	1099.151573	-380.816993	125.448924	1124.426850	-55.268314	165.097730	1035.021297	-350.882099	149.038015	1068.416482	-89.725924	8.446508	1197.528077	-201.399580	13.933192	1192.122986	-263.039778	90.430864	1070.573436	-22.047129	101.579221	1022.120667	-415.676258	183.491353	977.640880	-17.523074	261.439581	931.917500	-24.686621	304.739099	856.167917	-31.118035	283.465804	957.598746	-42.164664	353.806608	762.712980	-49.380819	343.578550	736.481364	-157.632204	323.101035	643.770151	-20.909435	320.447219	557.351928	-38.982899	277.477351	481.701786	-39.526240	339.998656	555.579171	-73.196121	245.018898	401.252959	-43.672701	185.165448	358.106729	-90.229305	459.996003	395.727211	-94.562824	370.446019	355.449231	-22.123368	134.722598	901.648090	-426.067769	195.204187	839.612829	-415.580225	225.838398	857.582166	-404.889654	216.314397	753.132841	-406.412882	233.719023	646.474307	-378.735404	224.827532	637.038466	-262.143125	-39.971359	392.040685	-370.630328	-120.691156	385.014311	-323.372692	57.244556	301.178378	-395.117835	163.195171	567.262160	-401.963912	112.912684	500.224829	-377.887204	34.978796	457.820641	-382.140956	128.420967	489.193598	-343.548418	142.515671	286.507359	-337.394413	-155.884888	854.472403	-207.909723	-52.733130	83.605296	-410.536943	-51.315944	79.841018	-13.249206	
252	1.2600	491.904439	1343.864638	-46.685610	517.752858	1338.222104	-358.139435	483.159268	1424.934689	-200.924005	505.087567	1271.263087	-197.414971	511.374392	1083.067257	42.776594	703.769736	931.461818	-37.160101	508.151144	1073.508597	-460.026944	702.674706	923.264549	-403.500787	-24.000221	1165.709275	-233.691382	160.953543	1100.911317	-381.201250	127.145150	1126.152694	-55.770401	165.617008	1036.611303	-350.377661	150.436244	1070.052922	-90.285237	10.850900	1200.188710	-201.898686	16.056248	1194.955167	-263.335569	92.170518	1072.638960	-22.606894	103.024146	1025.227623	-416.731939	183.706543	978.189112	-17.913424	260.816455	931.081814	-24.997705	302.646519	854.533269	-31.696115	283.388314	956.305648	-42.430962	350.647042	760.597060	-49.575414	340.187681	733.966219	-157.940177	320.912217	641.308914	-20.995362	318.801261	554.888567	-39.076641	276.471958	478.947438	-39.621617	338.361706	553.302458	-73.325118	244.245836	398.213097	-43.783890	184.740195	354.248905	-90.214876	459.175267	395.466539	-94.426597	370.088233	353.896448	-22.022384	135.344651	904.736994	-426.424716	196.006454	842.733897	-416.344253	226.606155	860.639961	-405.645469	217.282078	756.266874	-407.472001	234.977607	649.599441	-378.907556	225.912696	640.741728	-262.330570	-37.806207	394.491985	-370.454155	-118.876307	388.537221	-323.344524	57.873435	302.053358	-394.974603	164.804012	570.277772	-401.924014	114.574359	503.114908	-377.797376	36.707488	460.627643	-382.188284	130.073036	492.192677	-343.464767	142.873260	286.017390	-337.372842	-155.696802	854.406308	-208.193759	-52.693457	83.625468	-410.540016	-51.283244	80.037447	-13.096396	
253	1.2650	494.545399	1344.046528	-46.233156	521.346171	1337.141736	-356.582077	486.717218	1423.892343	-200.782550	508.111189	1270.125620	-197.042975	512.239552	1082.581918	42.765885	704.494871	931.128770	-37.137052	510.694866	1073.450473	-460.163959	703.763289	922.581435	-403.411400	-21.920278	1168.705765	-234.049912	162.525975	1102.723532	-381.508852	128.842797	1127.753372	-56.342100	166.592118	1038.527132	-350.642728	151.476863	1071.422509	-90.917615	13.482741	1203.499648	-202.619414	18.377439	1197.784944	-263.766572	94.063471	1074.962762	-23.110474	104.474474	1028.479862	-417.716773	184.186093	979.028211	-18.354624	260.342767	930.540873	-25.311929	300.833300	853.144937	-31.675046	283.343727	955.271633	-42.848010	347.502534	758.721328	-49.758932	336.792459	731.900668	-158.208780	319.182118	639.076293	-21.250487	317.314819	552.656682	-39.087397	275.424734	476.435224	-39.609749	336.862510	551.144761	-73.394704	243.583764	395.304603	-43.705009	184.419232	350.741584	-90.113037	458.490469	395.019576	-94.189764	369.884680	352.331039	-21.900180	136.095851	908.088511	-426.767097	196.945721	846.156387	-417.135244	227.542886	864.180929	-406.468337	218.384801	759.898757	-408.680232	236.498626	652.676492	-379.174820	227.570710	644.446842	-262.552310	-35.383367	396.987765	-370.292829	-116.870489	392.262437	-323.152962	58.439897	302.895222	-394.754641	166.632841	573.378730	-401.798377	116.465504	506.226486	-377.693215	38.670741	463.563935	-382.108545	131.960666	495.184475	-343.432170	143.284142	285.529251	-337.412318	-155.582194	854.438967	-208.261406	-52.622773	83.664764	-410.575570	-51.205113	79.852276	-13.254965	
254	1.2700	497.427588	1343.827507	-45.827293	525.118545	1336.135888	-355.660545	490.451847	1422.938863	-200.649457	511.261727	1268.930632	-196.781905	512.893095	1081.679115	42.893513	705.072226	930.689575	-37.155267	513.424423	1072.990833	-460.127460	704.888476	921.991695	-403.338528	-19.307761	1171.676656	-235.407981	164.035946	1104.755400	-381.840206	130.813101	1129.325394	-56.853049	167.407158	1040.652808	-350.895523	152.729234	1072.712208	-91.429972	15.999092	1206.326381	-203.031716	20.695393	1200.715428	-264.057813	96.096579	1077.480884	-23.695465	105.885599	1031.782989	-418.564154	184.458718	980.089143	-18.829309	260.013124	930.202150	-25.618355	298.957078	852.039235	-32.583366	283.488274	954.477014	-43.302763	344.438872	757.055823	-50.049827	333.533763	729.989886	-158.539356	317.389229	636.904323	-21.239914	315.927379	550.482407	-39.094577	274.450876	474.043608	-39.456146	335.358186	549.029990	-73.485685	243.090905	392.621940	-43.569249	184.464814	347.034823	-90.166388	457.890365	394.431637	-94.060066	369.736323	350.755677	-21.735358	137.111040	911.653544	-427.092606	198.194760	849.892624	-418.001209	228.815598	867.938701	-407.358296	219.890929	763.624840	-409.856267	238.237721	656.054425	-379.462622	229.184628	648.703990	-262.712685	-32.791771	399.546869	-370.123086	-114.716312	396.240989	-323.049043	59.118469	303.841735	-394.409060	168.766828	576.564576	-401.821251	118.616253	509.420231	-377.680708	40.863843	466.631821	-382.102198	134.067918	498.241283	-343.302395	143.703436	285.075296	-337.402787	-155.571462	854.451058	-208.198764	-52.573622	83.696976	-410.527236	-51.104811	79.724399	-13.251042	
